# xmcd
#
# Track frame offsets:
#	150
#	11485
#	22966
#	35794
#	46393
#	54747
#	64272
#	73358
#	84936
#	95315
#	109833
#	120881
#	131330
#	143546
#	156255
#	166692
#	178785
#	190998
#	202795
#	214788
#	225110
#	234387
#	246828
#	259817
#	270814
#
# Disc length: 3740 seconds
#
# Revision: 2
# Processed by: cddbd v1.5.2PL0 Copyright (c) Steve Scherf et al.
# Submitted via: audiograbber 1.83.01
#
DISCID=460e9a19
DTITLE=Various Artist - Absolute Country  -  CD1
DYEAR=2011
DGENRE=Country
TTITLE0=Don Gibson - Oh Lonesome Me
TTITLE1=Johnny Horton - Battle Of New Orleans
TTITLE2=Jim Reeves - Four Walls
TTITLE3=Jimmie Rodgers - Kisses Sweeter Than Wine
TTITLE4=Johnny Cash - Guess Things Happen That Way
TTITLE5=Marty Robbins - Just Married
TTITLE6=Frankie Laine - Rawhide
TTITLE7=Eddy Arnold - Easy On The Eyes
TTITLE8=Faron Young - Live Fast, Love Hard, Die Young
TTITLE9=Red Foley - Midnight
TTITLE10=Hank Williams - I'll Never Get Out Of This World Alive
TTITLE11=Webb Pierce - Slowly
TTITLE12=Hank Thompson - The Wild Side Of Life
TTITLE13=Johnny Cash - Folsom Prison Blues
TTITLE14=Slim Whitman - Rose Marie
TTITLE15=Hank Snow - The Golden Rocket
TTITLE16=Hank Williams - Cold Cold Heart
TTITLE17=Jim Reeves - Mexican Joe
TTITLE18=Red Foley - Tennessee Saturday Night
TTITLE19=Johnny Cash - There You Go
TTITLE20=Webb Pierce - In The Jailhouse Now
TTITLE21=Slim Whitman - Secret Love
TTITLE22=Hank Williams - Jambalaya
TTITLE23=Marty Robbins - Singing The Blues
TTITLE24=Johnny Cash - Rock Island Line
EXTD=YEAR: 2011
EXTT0=
EXTT1=
EXTT2=
EXTT3=
EXTT4=
EXTT5=
EXTT6=
EXTT7=
EXTT8=
EXTT9=
EXTT10=
EXTT11=
EXTT12=
EXTT13=
EXTT14=
EXTT15=
EXTT16=
EXTT17=
EXTT18=
EXTT19=
EXTT20=
EXTT21=
EXTT22=
EXTT23=
EXTT24=
PLAYORDER=
